<?xml version="1.0" encoding="utf-8"?>
<!-- Generator: Adobe Illustrator 19.0.0, SVG Export Plug-In . SVG Version: 6.00 Build 0)  -->
<!DOCTYPE svg PUBLIC "-//W3C//DTD SVG 1.1//EN" "http://www.w3.org/Graphics/SVG/1.1/DTD/svg11.dtd">
<svg version="1.1" id="Layer_1" xmlns="http://www.w3.org/2000/svg" xmlns:xlink="http://www.w3.org/1999/xlink" x="0px" y="0px"
	 viewBox="0 0 438.8719788 125.6869659" enable-background="new 0 0 438.8719788 125.6869659" xml:space="preserve">
<g>
	<g>
		<path fill="#E9A823" d="M79.092514,11.2348795c-1.8541489-5.7064886-7.9832382-8.829402-13.6897125-6.9752574
			c-5.7064667,1.8541441-8.8294067,7.9832253-6.9752541,13.6897144l28.0927467,86.4319611
			c1.9286499,5.3311157,7.6873474,8.326889,13.2154617,6.7356796c5.7660217-1.6597061,9.2813416-7.7837219,7.4411011-13.447403
			C107.1069489,97.4544449,79.092514,11.2348795,79.092514,11.2348795z"/>
		<path fill="#3FB991" d="M35.5635376,25.3783016c-1.8541489-5.7064877-7.9832439-8.829401-13.6897125-6.9752579
			c-5.7064686,1.8541451-8.8294086,7.9832268-6.9752579,13.6897144l28.0927505,86.4319611
			c1.9286499,5.3311234,7.6873436,8.3268967,13.2154579,6.7356873c5.7660255-1.6597137,9.2813454-7.7837219,7.4411011-13.447403
			C63.5779724,111.5978699,35.5635376,25.3783016,35.5635376,25.3783016z"/>
		<path fill="#E11765" d="M114.4520874,82.8178101c5.7064896-1.8541489,8.8293991-7.9832458,6.9752579-13.6897125
			c-1.8541489-5.7064705-7.9832306-8.8294106-13.6897125-6.9752579L21.305666,90.2455902
			c-5.3311214,1.9286499-8.3268929,7.6873398-6.7356844,13.2154541c1.6597109,5.7660294,7.7837229,9.2813416,13.4474058,7.4411011
			C28.2325211,110.8322449,114.4520874,82.8178101,114.4520874,82.8178101z"/>
		<path fill="#472A49" d="M39.3201103,107.22966c5.6259003-1.8279648,12.877121-4.1840286,20.6576614-6.7120819
			c-1.8278847-5.6256561-4.1842232-12.8777161-6.7127304-20.6596603l-20.6590118,6.7147293L39.3201103,107.22966z"/>
		<path fill="#CD2027" d="M82.8490906,93.086235c7.8100662-2.5376434,15.068718-4.8961182,20.6576614-6.7120743
			c-1.8282089-5.6266632-4.1850815-12.8803635-6.7141037-20.6639023l-20.6590118,6.7147293L82.8490906,93.086235z"/>
		<path fill="#71CBDC" d="M100.3086624,39.2888298c5.7064896-1.8541489,8.8293991-7.9832439,6.9752579-13.6897125
			s-7.983223-8.8294086-13.6897125-6.9752579L7.1622429,46.71661c-5.3311214,1.9286499-8.3268919,7.6873436-6.7356834,13.2154579
			c1.6597098,5.7660294,7.7837219,9.2813416,13.4474058,7.4411011
			C14.0890989,67.3032684,100.3086624,39.2888298,100.3086624,39.2888298z"/>
		<path fill="#1D947E" d="M25.1724529,63.7020569c5.6264992-1.8281593,12.8793964-4.1847687,20.6618977-6.7134552
			c-2.5377617-7.8104286-4.8964348-15.0696793-6.7127304-20.6596603L18.458374,43.0450439L25.1724529,63.7020569z"/>
		<path fill="#66873A" d="M68.7014313,49.5586357c7.8117065-2.5381775,15.0719528-4.8971748,20.6618958-6.713459
			c-2.5383987-7.8123817-4.8976288-15.0733509-6.7141037-20.6638947l-20.6632462,6.7161045L68.7014313,49.5586357z"/>
	</g>
</g>
<path fill="#3C444C" d="M202.1253662,33.9856606c3.822403,1.6679993,4.1008148,2.9192085,1.1119995,8.6180115
	c-3.0575867,5.8380089-3.822403,6.1856155-7.5751953,4.6564064c-4.7264252-2.0151939-10.7728271-3.5444031-14.6648407-3.5444031
	c-6.3935852,0-10.6336212,2.2936058-10.6336212,5.7684059c0,11.4676208,36.6272888,5.2820091,36.6272888,29.7460442
	c0,12.3016281-10.5648499,20.5028458-26.4104614,20.5028458c-8.3400116,0-18.6264343-2.7800064-25.7152405-6.3944244
	c-3.5439911-1.8067932-3.7527924-2.8491898-0.6952057-8.6872025c2.6416168-5.143219,3.4752045-5.6992188,7.2976074-4.1008148
	c6.0464172,2.6412125,13.6920471,4.6568146,18.8352661,4.6568146c5.8375854,0,9.729599-2.3632126,9.729599-5.8380051
	c0-11.120018-37.2520599-5.8380127-37.2520599-29.5376549c0-12.5796242,10.4944153-20.9892406,26.2016449-20.9892406
	C186.3493652,28.8424435,195.6621704,31.0664463,202.1253662,33.9856606z"/>
<path fill="#3C444C" d="M231.6655121,4.9344044v91.1841507c0,1.390419-1.459198,2.8496094-3.5439911,2.8496094h-9.591217
	c-2.0848083,0-3.5448151-1.4591904-3.5448151-2.8496094V4.9344044C214.9854889,0.4172078,216.2366943,0,223.3255005,0
	C231.3879242,0,231.6655121,0.5560009,231.6655121,4.9344044z"/>
<path fill="#3C444C" d="M299.8448181,56.2256966v39.2676659c0,2.0847931-1.459198,3.5444031-3.5440063,3.5444031h-9.4528503
	c-2.1543884,0-3.6831665-1.5984039-3.5439758-3.7528l0.1392212-4.2396088
	c-5.143219,5.6987991-12.510437,8.6876144-19.877655,8.6876144c-14.3168182,0-23.9080505-8.2708206-23.9080505-20.6416321
	c0-13.1356277,10.8424377-21.9620399,27.1056824-22.0316429c6.1856079,0,11.8143921,1.1120033,16.4016113,2.9883995v-4.5176086
	c0-7.2280121-5.6992188-11.5368118-15.3592224-11.5368118c-4.5176086,0-10.0776367,1.807209-14.5256348,4.3784027
	c-3.4056091,1.946003-4.2400208,1.807209-7.9232178-3.6831932c-3.6135864-5.4908218-3.4752197-6.5332184,0-8.7572212
	c6.6720123-4.3092155,15.7072449-7.08922,24.0472412-7.08922C288.0991821,28.8424435,299.8448181,38.989666,299.8448181,56.2256966z
	 M255.643158,78.9521255c0,4.6568222,3.9616089,7.7840118,9.9384155,7.7840118
	c7.2279968,0,13.7608032-3.4747925,17.5832214-9.3824081v-6.1160126c-3.8224182-1.4596024-8.479248-2.293602-12.6488342-2.293602
	C261.6199646,68.9441147,255.643158,73.1837234,255.643158,78.9521255z"/>
<path fill="#3C444C" d="M364.901062,34.1248665c3.4743652,2.0151939,3.6135864,3.1271935-0.2088013,9.0348053
	c-3.6136169,5.560009-4.2391968,5.9076157-8.061615,3.9616127c-2.91922-1.5292091-7.5760193-2.8496094-11.3984375-2.8496094
	c-12.0231934,0-20.0160217,7.9228058-20.0160217,19.877243c0,12.4404144,7.9928284,20.780426,20.0160217,20.780426
	c4.1704407,0,9.3824158-1.5988159,12.7880249-3.4752121c3.4752197-2.0156097,4.2400208-1.8763962,7.9232178,3.4752121
	c3.3359985,5.0040054,3.2664185,6.1852036,0.2775879,8.2704086c-5.3511963,3.683609-13.8304138,6.5332184-21.2664185,6.5332184
	c-22.2400208,0-37.113678-14.2476273-37.113678-35.584053c0-21.1976433,14.8736572-35.3064728,37.2520752-35.3064728
	C351.9042358,28.8424435,359.8970337,31.1360512,364.901062,34.1248665z"/>
<path fill="#3C444C" d="M437.4612427,90.3501434c2.7799988,3.5444031,1.6679993,4.7956161-5.2824097,7.2976151
	c-7.0888062,2.5716095-8.061615,2.4324036-10.5632019-0.8339996l-19.877655-26.5488358l-8.8959961,8.6175995v17.2360306
	c0,1.390419-1.459198,2.8496094-3.5440063,2.8496094h-9.591217c-2.0848083,0-3.5448303-1.4591904-3.5448303-2.8496094V4.9344044
	C376.1619263,0.4172078,377.413147,0,384.5019531,0c8.062439,0,8.3400269,0.5560009,8.3400269,4.9344044v51.84729
	l27.2440186-26.1320438c2.9888306-2.8496075,4.6568298-2.6407967,10.0080261,0.9036064
	c5.90802,3.822401,6.3248291,4.8648014,3.4752197,7.644804l-20.2944641,19.7380333L437.4612427,90.3501434z"/>
</svg>
